<svg xmlns="http://www.w3.org/2000/svg" xmlns:xlink="http://www.w3.org/1999/xlink" viewBox="0 0 226 236"><defs><circle id="b" cx="108" cy="108" r="108"/><filter id="a" width="200%" height="200%" x="-50%" y="-50%" filterUnits="objectBoundingBox"><feOffset dy="10" in="SourceAlpha" result="shadowOffsetOuter1"/><feGaussianBlur in="shadowOffsetOuter1" result="shadowBlurOuter1" stdDeviation="2.5"/><feColorMatrix in="shadowBlurOuter1" values="0 0 0 0 0 0 0 0 0 0 0 0 0 0 0 0 0 0 0.03 0"/></filter><linearGradient id="c" x1="82.82%" x2="-2.63%" y1="56.53%" y2="39.48%"><stop offset="0%" stop-color="#0A5C9D"/><stop offset="100%" stop-color="#00A85A"/></linearGradient><linearGradient id="d" x1="25.45%" x2="61.25%" y1="30.92%" y2="62.07%"><stop offset="0%" stop-color="#0A5C9D"/><stop offset="100%" stop-color="#00B0F0"/></linearGradient></defs><g fill="none" fill-rule="evenodd"><g transform="translate(5 3)"><use fill="#000" filter="url(#a)" xlink:href="#b"/><use fill="#FFF" xlink:href="#b"/></g><path fill="url(#c)" d="M64 80c0 24.9 20.1 45 45 45s45-20.1 45-45c0-2.9-.3-5.8-.8-8.7-.5-3.1-3.2-5.3-6.3-5.3a6.44 6.44 0 0 0-6.3 7.5c.2 1.1.3 2.1.3 3.2 4.6 18.1-5.4 37.6-23.1 44.1a33.17 33.17 0 0 1-42.7-19.5c-.3-.8-.5-1.5-.8-2.3-5.8-18.6 4.3-39.2 22.6-45.9 7.4-2.8 15.6-2.8 23.1-.1h.1c4.5 0 8.2-3.7 8.2-8.2 0-3.6-2.3-6.7-5.7-7.8-4.4-1.4-9-2-13.6-2-24.9 0-45 20.1-45 45" transform="translate(5 3)"/><path fill="url(#d)" d="M96.8 53.2C78.6 59.8 68.5 80.4 74.3 99a33.22 33.22 0 0 0 43.6 21.6c17.7-6.5 27.7-25.9 23.1-44.1 0 .4.1.8.1 1.2a25 25 0 0 1-50 0 25 25 0 0 1 25-25l3 .2h.9c-3.6-1.3-7.4-2-11.3-2-4 0-8 .7-11.8 2.1" transform="translate(5 3)"/><path fill="#0A5C9D" d="M137.9 176.2c-.4.8-1.2 1.2-2.1 1.1-.9 0-1.8 0-2.3-1-.5-1-4.2-13.4-4.8-16v-.7c-.1-.9.5-1.8 1.5-1.9h.4c1.1 0 1.7.5 1.9 1.3.9 4.4 2.1 8.7 3.5 12.9 1.3-3.9 3-10.2 3.7-12.7.3-.9 1-1.3 2.2-1.3 1.2 0 2 .4 2.2 1.3 1.2 4.1 2.3 8.6 3.7 12.5 1.4-4.4 3.3-12.5 3.4-12.7.2-1 1.2-1.8 2.2-1.6 1 .2 1.8 1.2 1.6 2.2v.6c-.5 2.7-3.6 14.1-4.7 16-.5.7-1.4 1.1-2.3 1-.9.1-1.7-.3-2.1-1.1-1.5-3.8-2.7-7.6-3.7-11.5-1.3 4.3-3.1 10.4-3.7 11.5l-.6.1zm-70.2-14.4a8.8 8.8 0 0 0-3.6-1c-3.1 0-5.1 2.5-5.1 6.4 0 3.9 1.6 6.6 5.3 6.6 1.2-.1 2.4-.4 3.5-1l-.1-11zm.5-13.4c.8-.6 2-.6 2.8 0 .3.2.5.5.5.9v26.9c0 .5-.4.9-.9 1h-1.5c-.5.1-1.1-.3-1.2-.8-1.2.7-2.5 1-3.8 1.1-5.4 0-9.2-4.1-9.2-10.2s3.5-10.1 9-10.1c1.2 0 2.5.2 3.6.8v-8.7c0-.4.2-.7.5-.9h.2zm36.5 13.1c-1.1-.4-2.3-.6-3.5-.6-3.3 0-5.2 2.7-5.2 6.4s2 6.6 5 6.6c1.3-.1 2.5-.4 3.7-1v-11.4zm-8.8 20.1l1.7.3c3.3.2 6.2-2.1 6.9-5.3-1.1.7-2.3 1.1-3.6 1.1-5.3 0-9-4-9-10.2 0-6.2 3.6-10.1 9.1-10.1 2.2 0 4.4.6 6.4 1.6.6.4.9 1.1.9 1.8v14c0 8-5.9 10.8-10.9 10.8-1 0-2-.1-2.9-.4-.9-.3-1.9-.7-2.7-1.2-.5-.2-.8-.8-.5-1.3v-.1l.6-1.3c.2-.5.8-.8 1.3-.5h.1l2.4.9.2-.1zm27.1-18.2c0-.9-1.1-2.3-3.5-2.3s-4.6 1.9-5 5.1c6.1-.1 8.5-1.1 8.5-2.8zm2.2 12.9c-1.8.9-3.8 1.4-5.9 1.5-5.2 0-8.8-4.1-8.8-10.1s3.4-10.2 9-10.2 7.4 3.4 7.4 6c0 4.9-4.8 6.1-12.3 6.3.5 2.4 2.1 4.4 4.7 4.4s5.1-1.5 5.3-1.7c.5-.3 1.2-.1 1.5.5l.7 1.3c.3.5.1 1.2-.5 1.5l-1.1.6v-.1zm-39.1-13.1c0-.9-1.1-2.3-3.5-2.3s-4.6 1.9-5 5.1c6.1-.1 8.5-1.1 8.5-2.8zm2.2 12.9c-1.8.9-3.8 1.4-5.9 1.5-5.2 0-8.8-4.1-8.8-10.1s3.5-10.2 9-10.2 7.4 3.4 7.4 6c0 4.9-4.8 6.1-12.3 6.3.5 2.4 2.1 4.4 4.7 4.4s5.1-1.5 5.3-1.7c.5-.3 1.2-.1 1.5.5l.7 1.3c.3.5.1 1.2-.5 1.5l-1.1.6v-.1zm67.2-8.6c0-6.1 3.6-10.2 8.7-10.2s8.7 4.1 8.7 10.2-3.3 10.1-8.7 10.1c-5.4 0-8.7-4.1-8.7-10.1zm13.5 0c0-4-1.8-6.5-4.8-6.5s-4.8 2.6-4.8 6.5 1.8 6.5 4.8 6.5 4.8-2.5 4.8-6.5z"/></g></svg>
