<?xml version="1.0" encoding="utf-8"?>
<!-- Generator: Adobe Illustrator 19.0.0, SVG Export Plug-In . SVG Version: 6.00 Build 0)  -->
<svg version="1.1" id="Ebene_1" xmlns="http://www.w3.org/2000/svg" xmlns:xlink="http://www.w3.org/1999/xlink" x="0px" y="0px"
	 viewBox="0 0 206.7 97.2" style="enable-background:new 0 0 206.7 97.2;" xml:space="preserve">
<style type="text/css">
	.st0{fill:#153D6A;}
</style>
<g id="XMLID_1_">
	<circle id="XMLID_2_" class="st0" cx="190.8" cy="42.8" r="6.1"/>
	<path id="XMLID_101_" class="st0" d="M177.9,47.1l-7.3-42v0c0-0.3-0.2-0.5-0.5-0.5c0,0,0,0,0,0h-9.4c-0.2,0-0.4,0.1-0.5,0.3l0,0
		l-10.7,27.4L138.8,5c0-0.2-0.2-0.4-0.5-0.4h-7.8h-1.2h-0.4c0,0,0,0,0,0c-0.3,0-0.5,0.2-0.5,0.5c0,0,0,0,0,0l-7.3,42l0,0
		c0,0,0,0.1,0,0.1c0,0.3,0.2,0.5,0.5,0.5c0,0,0,0,0,0l9.2,0c0,0,0,0,0.1,0c0.3,0,0.5-0.2,0.5-0.5l4.8-28.2l11,28.3l0,0
		c0.1,0.2,0.3,0.3,0.5,0.3h3.6c0.3,0,0.5-0.2,0.5-0.5l11-28.3l4.8,28.2c0,0,0,0,0,0c0,0.3,0.2,0.5,0.5,0.5c0,0,0,0,0,0l9.2,0
		c0,0,0,0,0,0c0.3,0,0.5-0.2,0.5-0.5l0,0l0,0C177.9,47.2,177.9,47.1,177.9,47.1z"/>
	<path id="XMLID_102_" class="st0" d="M52.4,47.3C52.5,47.4,52.5,47.4,52.4,47.3L52.4,47.3L52.4,47.3c0.1,0.3,0.3,0.4,0.5,0.4h0h9.4
		c0.2,0,0.4-0.1,0.5-0.3l0,0c0,0,0-0.1,0-0.1L75.4,5.3l0,0c0,0,0-0.1,0-0.1c0-0.3-0.2-0.5-0.5-0.5h-9.1c-0.3,0-0.5,0.2-0.5,0.5l0,0
		l-8.9,29.6L46.8,5l0,0c-0.1-0.2-0.3-0.4-0.5-0.4h-7.4c-0.2,0-0.4,0.2-0.5,0.4l0,0l-9.7,29.7L19.9,5l0,0c0-0.2-0.3-0.4-0.5-0.4h-9.1
		c-0.3,0-0.5,0.2-0.5,0.5c0,0.1,0,0.1,0,0.2l12.6,42.1l0,0c0.1,0.2,0.3,0.4,0.5,0.4h9.4c0.2,0,0.5-0.2,0.5-0.4l9.8-30.2L52.4,47.3z"
		/>
	<path id="XMLID_105_" class="st0" d="M83.7,47.7h9.5h10c6.5,0,11.7-5.3,11.7-11.7c0-5.3-3.6-9.8-8.4-11.2c3.2-1.9,5.3-5.4,5.3-9.3
		c0-5.9-4.7-10.7-10.5-10.8v0H83.7c-0.3,0-0.5,0.2-0.5,0.5v42.1C83.2,47.5,83.4,47.7,83.7,47.7z M92.3,12.3H98v0c0.1,0,0.1,0,0.2,0
		c2.5,0,4.4,2,4.4,4.4c0,2.5-2,4.5-4.4,4.5c-0.2,0-0.3,0-0.5,0h-5.4V12.3z M92.3,29.3h6.9h0c2.9,0,5.3,2.4,5.3,5.3
		c0,2.9-2.4,5.3-5.3,5.3h0h-6.9V29.3z"/>
	<path id="XMLID_107_" class="st0" d="M23.8,60.5h-1.5l-1.5,5.8c-0.4,1.4-0.7,2.7-0.9,4h0c-0.2-1.2-0.5-2.6-0.8-3.9l-1.4-5.8h-1.6
		l-1.5,5.8c-0.4,1.5-0.8,2.9-0.9,4h0c-0.2-1.1-0.5-2.5-0.9-4l-1.4-5.8H9.8L12.7,72h1.6l1.6-6c0.4-1.5,0.7-2.6,0.9-3.8h0
		c0.2,1.2,0.4,2.3,0.8,3.8l1.5,6h1.6L23.8,60.5z"/>
	<path id="XMLID_110_" class="st0" d="M32,67.8c0-2.5-1.6-4.3-4-4.3c-2.3,0-4.1,1.6-4.1,4.4c0,2.6,1.7,4.3,4,4.3
		C29.9,72.2,32,70.9,32,67.8z M27.9,71.1c-1.5,0-2.5-1.4-2.5-3.2c0-1.6,0.8-3.2,2.5-3.2c1.8,0,2.5,1.8,2.5,3.2
		C30.4,69.8,29.4,71.1,27.9,71.1z"/>
	<path id="XMLID_111_" class="st0" d="M37.9,63.6c-0.6,0-1.1,0.2-1.5,0.4c-0.5,0.3-0.8,0.6-1.1,1.1h0v-5.2h-1.5V72h1.5v-5
		c0-0.3,0-0.5,0.1-0.7c0.3-0.8,1-1.5,2-1.5c1.4,0,1.9,1.1,1.9,2.5V72h1.5v-4.9C40.7,64.3,39,63.6,37.9,63.6z"/>
	<path id="XMLID_112_" class="st0" d="M47.1,63.6c-1.4,0-2.3,0.8-2.7,1.6h0l-0.1-1.4H43C43,64.5,43,65.2,43,66v6h1.5v-5
		c0-0.3,0-0.5,0.1-0.7c0.3-0.8,1-1.5,2-1.5c1.4,0,1.9,1.1,1.9,2.4V72h1.5v-4.9C50.1,64.3,48.3,63.6,47.1,63.6z"/>
	<path id="XMLID_113_" class="st0" d="M57.9,70.7L57.9,70.7L58,72h1.3c-0.1-0.6-0.1-1.4-0.1-2.3v-6h-1.5v5.1c0,0.3-0.1,0.5-0.1,0.8
		c-0.3,0.7-1,1.4-2,1.4c-1.4,0-1.8-1.1-1.8-2.6v-4.6h-1.5v4.8c0,2.9,1.6,3.6,2.9,3.6C56.6,72.2,57.5,71.4,57.9,70.7z"/>
	<path id="XMLID_114_" class="st0" d="M65.7,63.6c-1.4,0-2.3,0.8-2.7,1.6h0l-0.1-1.4h-1.3c0.1,0.7,0.1,1.4,0.1,2.2v6h1.5v-5
		c0-0.3,0-0.5,0.1-0.7c0.3-0.8,1-1.5,2-1.5c1.4,0,1.9,1.1,1.9,2.4V72h1.5v-4.9C68.6,64.3,66.9,63.6,65.7,63.6z"/>
	<path id="XMLID_117_" class="st0" d="M73.8,72c1.3,0,2.2-0.6,2.6-1.4h0v0.9c0,2.1-1.1,2.9-2.7,2.9c-1,0-1.9-0.3-2.4-0.6L71,74.9
		c0.7,0.4,1.8,0.7,2.8,0.7c1,0,2.2-0.2,3-1c0.8-0.7,1.2-1.9,1.2-3.8V66c0-1,0-1.7,0.1-2.3h-1.3L76.7,65h0c-0.4-0.7-1.1-1.4-2.6-1.4
		c-1.9,0-3.7,1.6-3.7,4.4C70.3,70.3,71.8,72,73.8,72z M74.3,64.8c1.1,0,1.8,0.7,2.1,1.6c0.1,0.2,0.1,0.4,0.1,0.7v1.5
		c0,0.3,0,0.5-0.1,0.8c-0.3,1-1.2,1.5-2.1,1.5c-1.6,0-2.4-1.3-2.4-3C71.8,66,72.9,64.8,74.3,64.8z"/>
	<path id="XMLID_118_" class="st0" d="M83,67.2c-1.1-0.4-1.6-0.7-1.6-1.4c0-0.6,0.5-1.1,1.4-1.1c0.8,0,1.4,0.3,1.7,0.5l0.4-1.1
		c-0.5-0.3-1.2-0.5-2-0.5C81,63.6,80,64.7,80,66c0,1,0.7,1.8,2.2,2.3c1.1,0.4,1.5,0.8,1.5,1.5c0,0.7-0.5,1.2-1.6,1.2
		c-0.8,0-1.5-0.3-2-0.6l-0.4,1.1c0.6,0.3,1.4,0.6,2.3,0.6c2,0,3.1-1,3.1-2.5C85.1,68.5,84.4,67.8,83,67.2z"/>
	<path id="XMLID_121_" class="st0" d="M91.2,63.6c-1.3,0-2.3,0.6-2.8,1.5h0v-5.2h-1.5v10c0,0.7,0,1.6-0.1,2.1h1.3l0.1-1.4h0.1
		c0.6,1.1,1.6,1.6,2.8,1.6c1.8,0,3.7-1.5,3.7-4.4C94.7,65.3,93.3,63.6,91.2,63.6z M90.7,71c-1.1,0-2-0.7-2.3-1.8
		c0-0.2-0.1-0.4-0.1-0.5v-1.5c0-0.2,0.1-0.4,0.1-0.6c0.3-1.1,1.3-1.8,2.3-1.8c1.6,0,2.5,1.4,2.5,3.1C93.2,69.8,92.3,71,90.7,71z"/>
	<path id="XMLID_124_" class="st0" d="M100.9,71L100.9,71l0.2,1h1.4c-0.1-0.6-0.1-1.3-0.1-2V67c0-1.7-0.6-3.4-3.1-3.4
		c-1,0-2,0.3-2.7,0.7l0.3,1c0.6-0.4,1.4-0.6,2.2-0.6c1.7,0,1.9,1.2,1.9,1.9v0.2c-3.2,0-5,1.1-5,3.1c0,1.2,0.9,2.4,2.5,2.4
		C99.5,72.2,100.4,71.7,100.9,71z M97.3,69.7c0-1.6,1.9-1.9,3.5-1.9v1.4c0,0.2,0,0.3-0.1,0.5c-0.2,0.7-0.9,1.4-2,1.4
		C98,71.1,97.3,70.7,97.3,69.7z"/>
	<path id="XMLID_125_" class="st0" d="M111.4,63.8h-1.5v5.1c0,0.3-0.1,0.5-0.1,0.8c-0.3,0.7-1,1.4-2,1.4c-1.4,0-1.8-1.1-1.8-2.6
		v-4.6h-1.5v4.8c0,2.9,1.6,3.6,2.9,3.6c1.5,0,2.3-0.9,2.7-1.5h0l0.1,1.4h1.3c-0.1-0.6-0.1-1.4-0.1-2.3V63.8z"/>
	<path id="XMLID_128_" class="st0" d="M119.5,65L119.5,65c-0.4-0.7-1.2-1.4-2.6-1.4c-1.9,0-3.7,1.6-3.7,4.4c0,2.3,1.5,4,3.5,4
		c1.3,0,2.2-0.6,2.6-1.4h0v0.9c0,2.1-1.1,2.9-2.7,2.9c-1,0-1.9-0.3-2.4-0.6l-0.4,1.1c0.7,0.4,1.8,0.7,2.8,0.7c1,0,2.2-0.2,3-1
		c0.8-0.7,1.2-1.9,1.2-3.8V66c0-1,0-1.7,0.1-2.3h-1.3L119.5,65z M119.3,68.5c0,0.3,0,0.5-0.1,0.8c-0.3,1-1.2,1.5-2.1,1.5
		c-1.6,0-2.4-1.3-2.4-3c0-1.9,1-3.1,2.5-3.1c1.1,0,1.8,0.7,2.1,1.6c0.1,0.2,0.1,0.4,0.1,0.7V68.5z"/>
	<path id="XMLID_131_" class="st0" d="M130,67.5c0-1.5-0.7-3.9-3.4-3.9c-2.4,0-3.9,2-3.9,4.5c0,2.5,1.5,4.2,4.1,4.2
		c1.3,0,2.2-0.3,2.8-0.5l-0.3-1.1c-0.6,0.2-1.2,0.4-2.3,0.4c-1.5,0-2.8-0.8-2.8-2.9h5.8C130,68,130,67.8,130,67.5z M124.2,67.1
		c0.1-1,0.8-2.4,2.3-2.4c1.7,0,2.1,1.5,2.1,2.4H124.2z"/>
	<path id="XMLID_132_" class="st0" d="M134.6,67.2c-1.1-0.4-1.6-0.7-1.6-1.4c0-0.6,0.5-1.1,1.4-1.1c0.8,0,1.4,0.3,1.7,0.5l0.4-1.1
		c-0.5-0.3-1.2-0.5-2-0.5c-1.8,0-2.9,1.1-2.9,2.4c0,1,0.7,1.8,2.2,2.3c1.1,0.4,1.5,0.8,1.5,1.5c0,0.7-0.5,1.2-1.6,1.2
		c-0.8,0-1.5-0.3-2-0.6l-0.4,1.1c0.6,0.3,1.4,0.6,2.3,0.6c2,0,3.1-1,3.1-2.5C136.7,68.5,136,67.8,134.6,67.2z"/>
	<path id="XMLID_135_" class="st0" d="M141.9,63.6c-2.4,0-3.9,2-3.9,4.5c0,2.5,1.5,4.2,4.1,4.2c1.3,0,2.2-0.3,2.8-0.5l-0.3-1.1
		c-0.6,0.2-1.2,0.4-2.3,0.4c-1.5,0-2.8-0.8-2.8-2.9h5.8c0-0.2,0.1-0.4,0.1-0.7C145.4,66,144.6,63.6,141.9,63.6z M139.5,67.1
		c0.1-1,0.8-2.4,2.3-2.4c1.7,0,2.1,1.5,2.1,2.4H139.5z"/>
	<rect id="XMLID_136_" x="147.2" y="59.9" class="st0" width="1.5" height="12.1"/>
	<rect id="XMLID_137_" x="151.3" y="59.9" class="st0" width="1.5" height="12.1"/>
	<path id="XMLID_138_" class="st0" d="M158,67.2c-1.1-0.4-1.6-0.7-1.6-1.4c0-0.6,0.5-1.1,1.4-1.1c0.8,0,1.4,0.3,1.7,0.5l0.4-1.1
		c-0.5-0.3-1.2-0.5-2-0.5c-1.8,0-2.9,1.1-2.9,2.4c0,1,0.7,1.8,2.2,2.3c1.1,0.4,1.5,0.8,1.5,1.5c0,0.7-0.5,1.2-1.6,1.2
		c-0.8,0-1.5-0.3-2-0.6l-0.4,1.1c0.6,0.3,1.4,0.6,2.3,0.6c2,0,3.1-1,3.1-2.5C160.1,68.5,159.4,67.8,158,67.2z"/>
	<path id="XMLID_139_" class="st0" d="M165.9,64.8c0.8,0,1.4,0.2,1.7,0.4L168,64c-0.4-0.2-1.2-0.4-2.1-0.4c-2.7,0-4.4,1.8-4.4,4.4
		c0,2.5,1.6,4.2,4.1,4.2c1.1,0,2-0.3,2.4-0.5l-0.3-1.1c-0.4,0.2-1,0.4-1.8,0.4c-1.6,0-2.9-1.2-2.9-3.1C163,66.2,164,64.8,165.9,64.8
		z"/>
	<path id="XMLID_140_" class="st0" d="M173.9,63.6c-0.6,0-1.1,0.2-1.5,0.4c-0.5,0.3-0.8,0.6-1.1,1.1h0v-5.2h-1.5V72h1.5v-5
		c0-0.3,0-0.5,0.1-0.7c0.3-0.8,1-1.5,2-1.5c1.4,0,1.9,1.1,1.9,2.5V72h1.5v-4.9C176.8,64.3,175,63.6,173.9,63.6z"/>
	<path id="XMLID_143_" class="st0" d="M185,67c0-1.7-0.6-3.4-3.1-3.4c-1,0-2,0.3-2.7,0.7l0.3,1c0.6-0.4,1.4-0.6,2.2-0.6
		c1.7,0,1.9,1.2,1.9,1.9v0.2c-3.2,0-5,1.1-5,3.1c0,1.2,0.9,2.4,2.5,2.4c1.2,0,2.1-0.6,2.5-1.2h0.1l0.1,1h1.4c-0.1-0.6-0.1-1.3-0.1-2
		V67z M183.6,69.3c0,0.2,0,0.3-0.1,0.5c-0.2,0.7-0.9,1.4-2,1.4c-0.8,0-1.4-0.5-1.4-1.4c0-1.6,1.9-1.9,3.5-1.9V69.3z"/>
	<path id="XMLID_144_" class="st0" d="M190.7,60.9c0.4,0,0.7,0.1,1,0.2l0.2-1.2c-0.3-0.1-0.8-0.2-1.3-0.2c-0.7,0-1.5,0.2-2,0.8
		c-0.7,0.7-1,1.7-1,2.9v0.4h-1.2v1.1h1.2V72h1.5v-7.1h2v-1.1h-2v-0.4C189.1,62.1,189.4,60.9,190.7,60.9z"/>
	<path id="XMLID_145_" class="st0" d="M194.5,61.4l-1.5,0.4v2h-1.3v1.1h1.3v4.5c0,1,0.2,1.7,0.6,2.2c0.4,0.4,0.9,0.6,1.6,0.6
		c0.6,0,1-0.1,1.3-0.2l-0.1-1.1c-0.2,0.1-0.5,0.1-0.9,0.1c-0.8,0-1.1-0.6-1.1-1.6v-4.5h2.2v-1.1h-2.2V61.4z"/>
	<path id="XMLID_148_" class="st0" d="M15.7,86.3L15.7,86.3c1.2-0.5,1.9-1.4,1.9-2.5c0-0.9-0.4-1.6-0.9-2c-0.7-0.6-1.7-0.8-3.1-0.8
		c-1,0-2.1,0.1-2.7,0.2v11.2c0.5,0.1,1.3,0.1,2.3,0.1c1.9,0,3.2-0.3,4-1.1c0.6-0.6,1-1.3,1-2.3C18,87.5,16.7,86.6,15.7,86.3z
		 M12.3,82.1c0.2-0.1,0.6-0.1,1.3-0.1c1.5,0,2.5,0.5,2.5,1.9c0,1.1-0.9,1.9-2.5,1.9h-1.3V82.1z M13.5,91.4c-0.5,0-0.9,0-1.2-0.1
		v-4.4h1.2c1.6,0,3,0.6,3,2.2C16.5,90.8,15,91.4,13.5,91.4z"/>
	<path id="XMLID_152_" class="st0" d="M23.3,84c-2.4,0-3.9,2-3.9,4.4c0,2.5,1.5,4.1,4,4.1c1.3,0,2.2-0.3,2.7-0.5L25.9,91
		c-0.6,0.2-1.2,0.4-2.3,0.4c-1.5,0-2.8-0.8-2.8-2.9h5.8c0-0.2,0.1-0.4,0.1-0.7C26.7,86.4,26,84,23.3,84z M20.9,87.5
		c0.1-1,0.8-2.4,2.3-2.4c1.7,0,2.1,1.5,2.1,2.4H20.9z"/>
	<path id="XMLID_153_" class="st0" d="M29.9,85.8L29.9,85.8l-0.1-1.6h-1.3c0.1,0.8,0.1,1.6,0.1,2.6v5.6H30V88c0-0.3,0-0.5,0.1-0.7
		c0.2-1.1,0.9-1.9,2-1.9c0.2,0,0.4,0,0.5,0.1v-1.4c-0.1,0-0.3-0.1-0.4-0.1C31.1,84,30.2,84.7,29.9,85.8z"/>
	<rect id="XMLID_154_" x="34.1" y="80.4" class="st0" width="1.5" height="12"/>
	<path id="XMLID_155_" class="st0" d="M38.9,81c-0.5,0-0.9,0.4-0.9,0.9c0,0.5,0.4,0.9,0.9,0.9c0.6,0,1-0.4,0.9-0.9
		C39.8,81.4,39.4,81,38.9,81z"/>
	<rect id="XMLID_156_" x="38.1" y="84.2" class="st0" width="1.5" height="8.2"/>
	<path id="XMLID_157_" class="st0" d="M46.2,84c-1.4,0-2.3,0.8-2.7,1.5h0l-0.1-1.4H42c0.1,0.7,0.1,1.4,0.1,2.2v6h1.5v-4.9
		c0-0.3,0-0.5,0.1-0.7c0.3-0.8,1-1.5,2-1.5c1.4,0,1.9,1.1,1.9,2.4v4.7h1.5v-4.9C49.1,84.7,47.3,84,46.2,84z"/>
	<rect id="XMLID_158_" x="50.8" y="87.3" class="st0" width="4.2" height="1.1"/>
	<path id="XMLID_159_" class="st0" d="M65.5,81l-2,5.5c-0.5,1.4-0.9,2.7-1.2,3.9h-0.1c-0.3-1.2-0.7-2.4-1.2-3.9l-2-5.5h-1.9
		l-0.8,11.4h1.4l0.3-4.9c0.1-1.7,0.2-3.6,0.2-5.1h0c0.3,1.4,0.8,2.8,1.3,4.4l1.8,5.4h1.1l2-5.5c0.6-1.6,1.1-3,1.4-4.3h0.1
		c0,1.4,0.1,3.3,0.2,4.9l0.3,5h1.4L67.4,81H65.5z"/>
	<rect id="XMLID_160_" x="70.6" y="84.2" class="st0" width="1.5" height="8.2"/>
	<path id="XMLID_161_" class="st0" d="M71.3,81c-0.5,0-0.9,0.4-0.9,0.9c0,0.5,0.4,0.9,0.9,0.9c0.6,0,1-0.4,0.9-0.9
		C72.2,81.4,71.9,81,71.3,81z"/>
	<path id="XMLID_162_" class="st0" d="M76.3,81.8l-1.5,0.4v2h-1.3v1.1h1.3v4.5c0,1,0.2,1.7,0.6,2.1c0.4,0.4,0.9,0.6,1.6,0.6
		c0.6,0,1-0.1,1.3-0.2l-0.1-1.1c-0.2,0.1-0.5,0.1-0.9,0.1c-0.8,0-1.1-0.6-1.1-1.6v-4.4h2.1v-1.1h-2.1V81.8z"/>
	<path id="XMLID_163_" class="st0" d="M82,81.8l-1.5,0.4v2h-1.3v1.1h1.3v4.5c0,1,0.2,1.7,0.6,2.1c0.4,0.4,0.9,0.6,1.6,0.6
		c0.6,0,1-0.1,1.3-0.2l-0.1-1.1c-0.2,0.1-0.5,0.1-0.9,0.1c-0.8,0-1.1-0.6-1.1-1.6v-4.4h2.1v-1.1H82V81.8z"/>
	<path id="XMLID_166_" class="st0" d="M88.9,84c-2.4,0-3.9,2-3.9,4.4c0,2.5,1.5,4.1,4,4.1c1.3,0,2.2-0.3,2.7-0.5L91.6,91
		c-0.6,0.2-1.2,0.4-2.3,0.4c-1.5,0-2.8-0.8-2.8-2.9h5.8c0-0.2,0.1-0.4,0.1-0.7C92.3,86.4,91.6,84,88.9,84z M86.5,87.5
		c0.1-1,0.8-2.4,2.3-2.4c1.7,0,2.1,1.5,2.1,2.4H86.5z"/>
	<path id="XMLID_167_" class="st0" d="M106.8,84c-0.8,0-1.3,0.2-1.8,0.6c-0.3,0.3-0.7,0.6-0.9,1.1h0c-0.4-1-1.2-1.6-2.3-1.6
		c-1.4,0-2.1,0.7-2.6,1.5h-0.1L99,84.2h-1.3c0.1,0.7,0.1,1.4,0.1,2.2v6h1.5v-5c0-0.3,0-0.5,0.1-0.7c0.2-0.7,0.9-1.5,1.8-1.5
		c1.1,0,1.7,0.9,1.7,2.3v4.9h1.5v-5.1c0-0.3,0.1-0.5,0.1-0.7c0.3-0.7,0.9-1.4,1.8-1.4c1.2,0,1.8,0.9,1.8,2.5v4.6h1.5v-4.8
		C109.5,84.7,107.9,84,106.8,84z"/>
	<path id="XMLID_170_" class="st0" d="M116.2,84c-1.3,0-2.3,0.6-2.8,1.5h0v-5.2h-1.5v9.9c0,0.7,0,1.6-0.1,2.1h1.3l0.1-1.4h0.1
		c0.6,1.1,1.6,1.5,2.7,1.5c1.8,0,3.7-1.5,3.7-4.4C119.7,85.7,118.3,84,116.2,84z M115.7,91.4c-1.1,0-2-0.7-2.2-1.7
		c0-0.2-0.1-0.4-0.1-0.5v-1.5c0-0.2,0.1-0.4,0.1-0.6c0.3-1.1,1.3-1.8,2.3-1.8c1.6,0,2.4,1.4,2.4,3.1
		C118.2,90.1,117.3,91.4,115.7,91.4z"/>
	<polygon id="XMLID_171_" class="st0" points="128.6,85.8 123.1,85.8 123.1,81 121.6,81 121.6,92.4 123.1,92.4 123.1,87 128.6,87 
		128.6,92.4 130.1,92.4 130.1,81 128.6,81 	"/>
</g>
</svg>
