<?xml version="1.0" encoding="utf-8"?>
<!-- Generator: Adobe Illustrator 19.0.0, SVG Export Plug-In . SVG Version: 6.00 Build 0)  -->
<svg version="1.1" id="Ebene_1" xmlns="http://www.w3.org/2000/svg" xmlns:xlink="http://www.w3.org/1999/xlink" x="0px" y="0px"
	 viewBox="0 0 163.1 42.7" style="enable-background:new 0 0 163.1 42.7;" xml:space="preserve">
<style type="text/css">
	.st0{fill:#153D6A;}
</style>
<g id="Logo">
	<circle class="st0" cx="152.3" cy="34.4" r="4.9"/>
	<path class="st0" d="M141.8,37.9L141.8,37.9c0-0.1,0-0.1,0-0.1l-5.9-34v0c0-0.2-0.2-0.4-0.4-0.4c0,0,0,0,0,0h-7.6
		c-0.2,0-0.3,0.1-0.4,0.3l0,0l-8.7,22.2l-8.7-22.1c0-0.2-0.2-0.3-0.4-0.3h-6.3l0,0h-1h-0.3c0,0,0,0,0,0c-0.2,0-0.4,0.2-0.4,0.4
		c0,0,0,0,0,0l-5.9,34l0,0c0,0,0,0,0,0.1c0,0.2,0.2,0.4,0.4,0.4c0,0,0,0,0,0l7.4,0c0,0,0,0,0.1,0c0.2,0,0.4-0.2,0.4-0.4l3.9-22.8
		L117,38l0,0c0.1,0.2,0.2,0.3,0.4,0.3h2.9c0.2,0,0.4-0.2,0.4-0.4l8.9-22.9l3.9,22.8c0,0,0,0,0,0c0,0.2,0.2,0.4,0.4,0.4c0,0,0,0,0,0
		l7.5,0c0,0,0,0,0,0C141.6,38.3,141.8,38.1,141.8,37.9L141.8,37.9z"/>
	<path class="st0" d="M58.9,4L58.9,4c0,0,0-0.1,0-0.1c0-0.2-0.2-0.4-0.4-0.4h-7.4c-0.2,0-0.4,0.2-0.4,0.4l0,0l-7.2,24l-7.8-24l0,0
		c0-0.2-0.2-0.3-0.4-0.3h-6c-0.2,0-0.4,0.1-0.4,0.3l0,0l-7.8,24L14,3.7l0,0c0-0.2-0.2-0.3-0.4-0.3l0,0H6.3l0,0
		C6,3.4,5.9,3.6,5.9,3.8c0,0,0,0.1,0,0.1L16.1,38l0,0c0.1,0.2,0.2,0.3,0.4,0.3H24l0,0c0.2,0,0.4-0.1,0.4-0.3l8-24.4L40.4,38
		c0,0,0,0,0,0.1l0,0l0,0c0.1,0.1,0.2,0.2,0.4,0.2h0l0,0h7.6c0.2,0,0.3-0.1,0.4-0.2l0,0l0,0c0,0,0-0.1,0-0.1L58.9,4z"/>
	<path class="st0" d="M84,19.7c2.6-1.5,4.3-4.3,4.3-7.5c0-4.8-3.8-8.6-8.5-8.8v0H65.6l0,0c-0.2,0-0.4,0.2-0.4,0.4v34.1l0,0l0,0
		c0,0.2,0.2,0.4,0.4,0.4l0,0h7.7h8.1c5.2,0,9.5-4.2,9.5-9.5C90.8,24.5,87.9,20.9,84,19.7z M72.6,9.6h4.6v0c0.1,0,0.1,0,0.2,0
		c2,0,3.6,1.6,3.6,3.6c0,2-1.6,3.6-3.6,3.6c-0.1,0-0.3,0-0.4,0h-4.4V9.6z M78.1,31.9L78.1,31.9h-5.6v-8.5h5.6h0
		c2.3,0,4.3,1.9,4.3,4.3C82.4,30,80.5,31.9,78.1,31.9z"/>
</g>
</svg>
