<svg xmlns="http://www.w3.org/2000/svg" viewBox="0 0 2978.04 563.33"><defs><style>.cls-1{fill:#fff;}</style></defs><title>wbm-logo-white-30-jahre</title><g id="Ebene_1" data-name="Ebene 1"><path class="cls-1" d="M966.91,436.56A32.47,32.47,0,1,0,999.38,469,32.47,32.47,0,0,0,966.91,436.56Z" transform="translate(-0.13 -264.81)"/><path class="cls-1" d="M897.85,492.46l0-.1a2.7,2.7,0,0,0-.12-.69L858.82,267.22h0a2.7,2.7,0,0,0-2.69-2.41H805.94a2.71,2.71,0,0,0-2.56,1.85l-.07,0L746.1,413.29,689,267.07a2.68,2.68,0,0,0-2.66-2.26H636.13a2.71,2.71,0,0,0-2.71,2.71s0,.08,0,.12L594.57,492l0,0a2.52,2.52,0,0,0-.05.48,2.72,2.72,0,0,0,2.71,2.71h0l49.14,0a2.09,2.09,0,0,0,.36,0,2.7,2.7,0,0,0,2.68-2.43L675,342.13,734,493.4l.06,0a2.7,2.7,0,0,0,2.52,1.74h19.23a2.69,2.69,0,0,0,2.68-2.45l59-151.06,25.63,150.73s0,0,0,.07a2.71,2.71,0,0,0,2.71,2.71h49.38a2.71,2.71,0,0,0,2.71-2.71Z" transform="translate(-0.13 -264.81)"/><path class="cls-1" d="M350.64,268.32h0a2.62,2.62,0,0,0,.13-.79,2.7,2.7,0,0,0-2.7-2.71H299.49a2.69,2.69,0,0,0-2.68,2.4l0,0L249.44,425.44,197.9,266.9l0,0a2.7,2.7,0,0,0-2.62-2.07h-39.6a2.7,2.7,0,0,0-2.63,2.07l0,0-51.6,158.34L54,267v0a2.72,2.72,0,0,0-2.66-2.14H2.84a2.71,2.71,0,0,0-2.71,2.71,2.76,2.76,0,0,0,.17.9L67.58,493.24l0,0a2.71,2.71,0,0,0,2.57,1.9h50a2.72,2.72,0,0,0,2.66-2.23l52.55-161.26L227.9,493.11a3.12,3.12,0,0,0,.15.43v0h0a2.7,2.7,0,0,0,2.46,1.61h50.23a2.73,2.73,0,0,0,2.5-1.65h0a3.47,3.47,0,0,0,.16-.55Z" transform="translate(-0.13 -264.81)"/><path class="cls-1" d="M477.16,453H440.51V396.83h36.65a28.07,28.07,0,0,1,0,56.13ZM440.51,305.81h30.43v.06c.38,0,.76-.06,1.15-.06a23.76,23.76,0,1,1-2.69,47.36H440.51ZM516,372.46a57.9,57.9,0,0,0-28-107.61v0H394.58a2.71,2.71,0,0,0-2.71,2.71V492.46a2.71,2.71,0,0,0,2.71,2.71H498.31A62.63,62.63,0,0,0,516,372.46Z" transform="translate(-0.13 -264.81)"/><path class="cls-1" d="M11.34,773.69l23.73-3.16Q39.15,790.69,49,799.6t23.93,8.9a38.31,38.31,0,0,0,28.27-11.61q11.53-11.6,11.54-28.74,0-16.33-10.68-27T74.88,730.58a68,68,0,0,0-16.74,2.64l2.64-20.83a37.58,37.58,0,0,0,3.82.26,48.9,48.9,0,0,0,27.29-7.91Q104,696.84,104,680.35q0-13.05-8.83-21.62t-22.81-8.57q-13.84,0-23.07,8.7T37.44,685l-23.73-4.22q4.35-23.87,19.78-37t38.36-13.12A63.17,63.17,0,0,1,101,637.44,49.15,49.15,0,0,1,121.35,656a47.55,47.55,0,0,1,7.06,24.92,40.76,40.76,0,0,1-6.73,22.81Q115,714,101.78,720q17.13,4,26.63,16.42t9.49,31.18q0,25.3-18.46,42.91t-46.67,17.6q-25.44,0-42.25-15.16T11.34,773.69Z" transform="translate(-0.13 -264.81)"/><path class="cls-1" d="M161.37,729.39q0-34.27,7-55.17t21-32.23q13.91-11.34,35-11.34,15.56,0,27.29,6.26A52.14,52.14,0,0,1,271.05,655q7.65,11.81,12,28.74t4.35,45.68q0,34-7,54.91t-20.9,32.3Q245.62,828,224.38,828q-27.94,0-43.9-20Q161.37,783.84,161.37,729.39Zm24.39,0q0,47.6,11.14,63.35t27.48,15.76q16.35,0,27.49-15.82T263,729.39q0-47.71-11.14-63.41t-27.75-15.69q-16.35,0-26.1,13.85Q185.75,681.8,185.76,729.39Z" transform="translate(-0.13 -264.81)"/><path class="cls-1" d="M383.12,769.87l23.07-3.17q.92,22.15,8.3,30.33t20.44,8.17a30.41,30.41,0,0,0,16.61-4.42,22.66,22.66,0,0,0,9.62-12q2.64-7.59,2.64-24.2V631.44h25.58v131.7q0,24.27-5.87,37.58A41.77,41.77,0,0,1,464.92,821q-12.72,7-29.86,7-25.44,0-39-14.64T383.12,769.87Z" transform="translate(-0.13 -264.81)"/><path class="cls-1" d="M509.94,824.71l74.23-193.27h27.55l79.1,193.27H661.68l-22.54-58.53H558.33L537.1,824.71Zm55.77-79.36h65.52l-20.17-53.53q-9.22-24.39-13.71-40.08a245.32,245.32,0,0,1-10.42,36.92Z" transform="translate(-0.13 -264.81)"/><path class="cls-1" d="M712.05,824.71V631.44h25.57v79.37H838.08V631.44h25.58V824.71H838.08v-91.1H737.62v91.1Z" transform="translate(-0.13 -264.81)"/><path class="cls-1" d="M906.64,824.71V631.44h85.69q25.83,0,39.29,5.21T1053.11,655a54.87,54.87,0,0,1,8,29.13q0,20.58-13.32,34.68t-41.13,17.93q10.15,4.88,15.42,9.62a133.19,133.19,0,0,1,21.23,25.71l33.62,52.6H1044.8l-25.58-40.21q-11.21-17.4-18.45-26.63t-13-12.92a38.41,38.41,0,0,0-11.67-5.14q-4.35-.91-14.23-.92H932.21v85.82Zm25.57-108h55q17.53,0,27.42-3.63a29.15,29.15,0,0,0,15-11.6,31.35,31.35,0,0,0,5.14-17.34,28.82,28.82,0,0,0-10-22.54q-10-8.83-31.45-8.83H932.21Z" transform="translate(-0.13 -264.81)"/><path class="cls-1" d="M1101.75,824.71V631.44H1241.5v22.81H1127.33v59.19h106.92v22.68H1127.33V801.9H1246v22.81Z" transform="translate(-0.13 -264.81)"/><path class="cls-1" d="M1355.54,824.71V631.44H1394l45.75,136.85q6.33,19.11,9.23,28.6,3.3-10.54,10.28-31l46.28-134.47H1540V824.71h-24.66V663l-56.16,161.76h-23.07l-55.9-164.53V824.71Z" transform="translate(-0.13 -264.81)"/><path class="cls-1" d="M1585.59,824.71V631.44h25.58V824.71Z" transform="translate(-0.13 -264.81)"/><path class="cls-1" d="M1705.43,824.71V654.25h-63.68V631.44H1795v22.81H1731V824.71Z" transform="translate(-0.13 -264.81)"/><path class="cls-1" d="M1870.36,824.71V654.25h-63.68V631.44h153.19v22.81h-63.94V824.71Z" transform="translate(-0.13 -264.81)"/><path class="cls-1" d="M1986.64,824.71V631.44h139.74v22.81H2012.21v59.19h106.92v22.68H2012.21V801.9h118.65v22.81Z" transform="translate(-0.13 -264.81)"/><path class="cls-1" d="M2165.93,824.71V631.44h26.24l101.51,151.74V631.44h24.52V824.71H2292L2190.45,672.84V824.71Z" transform="translate(-0.13 -264.81)"/><path class="cls-1" d="M2361.18,824.71V631.44h66.58q22.54,0,34.41,2.77a65.46,65.46,0,0,1,28.34,13.84,78.68,78.68,0,0,1,22.88,33Q2521,701.18,2521,727q0,22-5.14,39t-13.19,28.15a70.14,70.14,0,0,1-17.6,17.54,71.81,71.81,0,0,1-23.07,9.69,132.11,132.11,0,0,1-31,3.29Zm25.58-22.81H2428q19.13,0,30-3.56t17.33-10q9.11-9.11,14.17-24.46t5.08-37.24q0-30.33-9.95-46.61t-24.2-21.82q-10.27-3.94-33.09-4h-40.6Z" transform="translate(-0.13 -264.81)"/><path class="cls-1" d="M2556.56,824.71V631.44h85.7q25.83,0,39.28,5.21A42.92,42.92,0,0,1,2703,655a54.87,54.87,0,0,1,8,29.13q0,20.58-13.31,34.68t-41.13,17.93q10.14,4.88,15.42,9.62a133.19,133.19,0,0,1,21.23,25.71l33.61,52.6h-32.16l-25.58-40.21q-11.21-17.4-18.46-26.63t-13-12.92a38.51,38.51,0,0,0-11.67-5.14q-4.35-.91-14.24-.92h-29.66v85.82Zm25.58-108h55q17.54,0,27.43-3.63a29.15,29.15,0,0,0,15-11.6,31.44,31.44,0,0,0,5.14-17.34,28.8,28.8,0,0,0-10-22.54q-9.95-8.83-31.44-8.83h-61.17Z" transform="translate(-0.13 -264.81)"/><path class="cls-1" d="M2755.5,824.71V631.44h25.58V824.71Z" transform="translate(-0.13 -264.81)"/><path class="cls-1" d="M2825.9,824.71V631.44h26.24l101.51,151.74V631.44h24.52V824.71h-26.23L2850.42,672.84V824.71Z" transform="translate(-0.13 -264.81)"/></g></svg>