<?xml version="1.0" encoding="UTF-8" standalone="no"?>
<!DOCTYPE svg PUBLIC "-//W3C//DTD SVG 1.1//EN" "http://www.w3.org/Graphics/SVG/1.1/DTD/svg11.dtd">
<svg width="100%" height="100%" viewBox="0 0 3262 631" version="1.1" xmlns="http://www.w3.org/2000/svg" xmlns:xlink="http://www.w3.org/1999/xlink" xml:space="preserve" xmlns:serif="http://www.serif.com/" style="fill-rule:evenodd;clip-rule:evenodd;stroke-linejoin:round;stroke-miterlimit:1.41421;">
    <g transform="matrix(4.16667,0,0,4.16667,-88.5792,-96.8875)">
        <path d="M97.323,24.904L84.719,24.904L75.069,63.936L63.768,24.904L54.728,24.904L43.427,63.936L33.864,24.904L21.259,24.904L37.776,86.799L47.86,86.799L59.248,49.245L70.636,86.799L80.72,86.799L97.323,24.904ZM115.813,33.771L115.813,24.557L104.252,24.557L104.252,33.771L115.813,33.771ZM115.726,86.799L115.726,41.508L104.425,41.508L104.425,86.799L115.726,86.799ZM159.8,45.246C156.67,42.116 153.541,40.986 149.107,40.986C144.239,40.986 139.893,43.247 137.719,45.854L137.719,41.508L126.679,41.508L126.679,86.799L137.98,86.799L137.98,59.503C137.98,53.765 141.805,51.157 145.282,51.157C148.064,51.157 149.542,52.113 151.28,53.852L159.8,45.246ZM222.562,64.11C222.562,57.329 222.475,49.592 217.954,45.072C215.433,42.551 211.348,40.986 206.914,40.986C202.307,40.986 198.917,42.203 195.961,45.507L195.961,24.904L184.66,24.904L184.66,86.799L195.613,86.799L195.613,82.539C198.743,86.016 202.133,87.32 206.914,87.32C211.348,87.32 215.433,85.755 217.954,83.235C222.475,78.714 222.562,70.89 222.562,64.11ZM211.261,64.11C211.261,71.499 210.391,77.149 203.611,77.149C196.83,77.149 195.961,71.499 195.961,64.11C195.961,56.721 196.83,51.157 203.611,51.157C210.391,51.157 211.261,56.721 211.261,64.11ZM266.913,86.799L266.913,56.982C266.913,46.376 260.306,40.986 247.615,40.986C240.052,40.986 235.705,42.377 231.272,47.245L238.487,54.287C240.834,51.592 242.834,50.549 247.18,50.549C253.178,50.549 255.612,52.722 255.612,57.677L255.612,59.937L244.92,59.937C234.401,59.937 229.446,65.848 229.446,73.064C229.446,77.062 230.75,80.714 233.184,83.235C235.879,85.929 239.617,87.233 244.746,87.233C249.962,87.233 252.83,85.929 255.873,82.887L255.873,86.799L266.913,86.799ZM255.612,70.108C255.612,72.89 255.178,74.715 253.961,75.845C251.961,77.758 249.962,78.019 246.832,78.019C242.399,78.019 240.313,75.932 240.313,72.803C240.313,69.586 242.573,67.674 246.658,67.674L255.612,67.674L255.612,70.108ZM314.768,86.799L314.768,41.508L303.467,41.508L303.467,68.891C303.467,75.063 299.468,77.149 295.904,77.149C292.34,77.149 288.428,75.063 288.428,68.891L288.428,41.508L277.127,41.508L277.127,70.456C277.127,75.411 278.083,79.67 281.735,83.321C284.255,85.842 287.907,87.32 292.427,87.32C296.6,87.32 300.772,85.755 303.728,82.626L303.728,86.799L314.768,86.799ZM363.205,67.674L363.205,62.632C363.205,50.201 356.077,40.986 343.472,40.986C331.737,40.986 323.739,49.332 323.739,64.11C323.739,82.452 333.997,87.32 344.689,87.32C352.861,87.32 357.294,84.799 361.901,80.192L355.034,73.498C352.165,76.367 349.731,77.758 344.776,77.758C338.43,77.758 334.866,73.498 334.866,67.674L363.205,67.674ZM352.078,59.937L334.866,59.937C334.953,57.938 335.214,56.721 335.909,55.069C337.126,52.374 339.647,50.375 343.472,50.375C347.297,50.375 349.818,52.374 351.035,55.069C351.731,56.721 351.991,57.938 352.078,59.937ZM409.816,86.799L409.816,57.851C409.816,52.896 408.86,48.636 405.209,44.985C402.688,42.464 399.037,40.986 394.517,40.986C390.344,40.986 386.171,42.551 383.216,45.681L383.216,41.508L372.176,41.508L372.176,86.799L383.477,86.799L383.477,59.416C383.477,53.244 387.475,51.157 391.04,51.157C394.604,51.157 398.516,53.244 398.516,59.416L398.516,86.799L409.816,86.799ZM461.452,51.418L461.452,42.812L453.107,42.812L453.107,37.857C453.107,35.249 454.324,33.771 457.019,33.771L461.452,33.771L461.452,24.209L455.02,24.209C445.805,24.209 441.806,30.729 441.806,37.161L441.806,42.812L437.112,42.812L437.112,51.418L441.806,51.418L441.806,86.799L453.107,86.799L453.107,51.418L461.452,51.418ZM501.883,34.119L501.883,23.253L492.234,23.253L492.234,34.119L501.883,34.119ZM482.672,34.119L482.672,23.253L473.022,23.253L473.022,34.119L482.672,34.119ZM506.317,86.799L506.317,41.508L495.016,41.508L495.016,68.891C495.016,75.063 491.017,77.149 487.453,77.149C483.889,77.149 479.977,75.063 479.977,68.891L479.977,41.508L468.676,41.508L468.676,70.456C468.676,75.411 469.632,79.67 473.283,83.321C475.804,85.842 479.455,87.32 483.976,87.32C488.148,87.32 492.321,85.755 495.277,82.626L495.277,86.799L506.317,86.799ZM550.512,45.246C547.382,42.116 544.253,40.986 539.819,40.986C534.951,40.986 530.605,43.247 528.432,45.854L528.432,41.508L517.391,41.508L517.391,86.799L528.692,86.799L528.692,59.503C528.692,53.765 532.517,51.157 535.995,51.157C538.776,51.157 540.254,52.113 541.993,53.852L550.512,45.246ZM621.098,68.978C621.098,60.72 616.317,56.808 612.578,55.069C615.708,53.591 620.228,49.158 620.228,42.29C620.228,31.685 613.187,24.904 601.104,24.904L576.242,24.904L576.242,86.799L602.147,86.799C613.187,86.799 621.098,80.54 621.098,68.978ZM608.145,42.812C608.145,47.072 605.276,49.94 600.147,49.94L588.325,49.94L588.325,35.684L600.147,35.684C605.276,35.684 608.145,38.552 608.145,42.812ZM609.014,68.369C609.014,72.542 606.406,76.019 600.93,76.019L588.325,76.019L588.325,60.807L600.93,60.807C606.406,60.807 609.014,64.197 609.014,68.369ZM668.595,67.674L668.595,62.632C668.595,50.201 661.467,40.986 648.862,40.986C637.127,40.986 629.129,49.332 629.129,64.11C629.129,82.452 639.387,87.32 650.079,87.32C658.251,87.32 662.684,84.799 667.292,80.192L660.424,73.498C657.555,76.367 655.121,77.758 650.166,77.758C643.82,77.758 640.256,73.498 640.256,67.674L668.595,67.674ZM657.468,59.937L640.256,59.937C640.343,57.938 640.604,56.721 641.299,55.069C642.516,52.374 645.037,50.375 648.862,50.375C652.687,50.375 655.208,52.374 656.425,55.069C657.121,56.721 657.381,57.938 657.468,59.937ZM710.686,45.246C707.557,42.116 704.427,40.986 699.994,40.986C695.126,40.986 690.779,43.247 688.606,45.854L688.606,41.508L677.566,41.508L677.566,86.799L688.867,86.799L688.867,59.503C688.867,53.765 692.692,51.157 696.169,51.157C698.951,51.157 700.428,52.113 702.167,53.852L710.686,45.246ZM736.538,86.799L736.538,77.236L732.192,77.236C729.323,77.236 728.193,75.845 728.193,73.151L728.193,24.904L716.892,24.904L716.892,73.846C716.892,80.279 720.804,86.799 730.105,86.799L736.538,86.799ZM755.576,33.771L755.576,24.557L744.014,24.557L744.014,33.771L755.576,33.771ZM755.489,86.799L755.489,41.508L744.188,41.508L744.188,86.799L755.489,86.799ZM804.082,86.799L804.082,57.851C804.082,52.896 803.126,48.636 799.475,44.985C796.954,42.464 793.303,40.986 788.782,40.986C784.61,40.986 780.437,42.551 777.481,45.681L777.481,41.508L766.441,41.508L766.441,86.799L777.742,86.799L777.742,59.416C777.742,53.244 781.741,51.157 785.305,51.157C788.869,51.157 792.781,53.244 792.781,59.416L792.781,86.799L804.082,86.799Z" style="fill:white;fill-rule:nonzero;"/>
        <path d="M313.711,138.741C313.711,132.294 314.024,125.784 309.205,120.965C306.388,118.148 302.32,116.771 297.688,116.771L282.041,116.771L282.041,161.335L297.688,161.335C302.32,161.335 306.388,159.958 309.205,157.142C314.024,152.322 313.711,145.187 313.711,138.741ZM306.951,138.741C306.951,144.874 306.889,149.694 304.573,152.26C302.695,154.325 300.192,155.264 297,155.264L288.8,155.264L288.8,122.843L297,122.843C300.192,122.843 302.695,123.782 304.573,125.847C306.889,128.413 306.951,132.607 306.951,138.741ZM329.351,123.343L329.351,116.584L322.592,116.584L322.592,123.343L329.351,123.343ZM329.164,161.335L329.164,129.602L322.779,129.602L322.779,161.335L329.164,161.335ZM364.119,147.315L364.119,144.499C364.119,135.486 359.175,129.227 350.663,129.227C342.526,129.227 337.206,135.173 337.206,145.438C337.206,157.517 343.527,161.711 351.476,161.711C357.047,161.711 360.114,160.021 363.368,156.766L359.3,152.948C357.047,155.202 355.169,156.203 351.602,156.203C346.407,156.203 343.527,152.761 343.527,147.315L364.119,147.315ZM357.798,142.871L343.527,142.871C343.59,140.931 343.715,139.992 344.341,138.553C345.343,136.174 347.658,134.547 350.663,134.547C353.667,134.547 355.92,136.174 356.922,138.553C357.548,139.992 357.735,140.931 357.798,142.871ZM416.568,161.335L416.568,155.264L395.1,155.264L395.1,116.771L388.34,116.771L388.34,161.335L416.568,161.335ZM448.138,161.335L448.138,140.117C448.138,132.92 443.757,129.227 435.057,129.227C429.799,129.227 426.67,130.291 423.665,133.796L427.859,137.739C429.611,135.486 431.301,134.672 434.806,134.672C439.751,134.672 441.754,136.612 441.754,140.618L441.754,142.871L433.367,142.871C426.106,142.871 422.414,146.689 422.414,152.01C422.414,154.701 423.29,157.142 424.917,158.832C426.857,160.772 429.486,161.711 433.429,161.711C437.372,161.711 439.563,160.772 441.879,158.456L441.879,161.335L448.138,161.335ZM441.754,149.882C441.754,152.135 441.316,153.637 440.377,154.576C438.687,156.203 436.872,156.391 434.431,156.391C430.425,156.391 428.61,154.764 428.61,151.884C428.61,149.005 430.55,147.315 434.306,147.315L441.754,147.315L441.754,149.882ZM483.282,161.335L483.282,141.056C483.282,137.489 482.531,134.484 480.09,132.106C478.212,130.291 475.521,129.227 472.266,129.227C469.074,129.227 466.007,130.416 463.817,132.794L463.817,129.602L457.558,129.602L457.558,161.335L463.942,161.335L463.942,141.995C463.942,137.113 466.946,134.923 470.514,134.923C474.081,134.923 476.898,137.051 476.898,141.995L476.898,161.335L483.282,161.335ZM517.448,161.335L517.448,116.771L511.065,116.771L511.065,132.794C508.749,130.041 506.121,129.227 502.741,129.227C499.549,129.227 496.795,130.291 495.042,132.043C491.85,135.235 491.475,140.618 491.475,145.438C491.475,150.257 491.85,155.702 495.042,158.894C496.795,160.647 499.611,161.711 502.803,161.711C506.246,161.711 508.812,160.835 511.19,157.956L511.19,161.335L517.448,161.335ZM511.065,145.438C511.065,151.071 510.252,156.015 504.493,156.015C498.735,156.015 497.859,151.071 497.859,145.438C497.859,139.805 498.735,134.923 504.493,134.923C510.252,134.923 511.065,139.805 511.065,145.438ZM552.562,147.315L552.562,144.499C552.562,135.486 547.617,129.227 539.105,129.227C530.968,129.227 525.648,135.173 525.648,145.438C525.648,157.517 531.97,161.711 539.919,161.711C545.489,161.711 548.556,160.021 551.811,156.766L547.742,152.948C545.489,155.202 543.612,156.203 540.044,156.203C534.849,156.203 531.97,152.761 531.97,147.315L552.562,147.315ZM546.24,142.871L531.97,142.871C532.032,140.931 532.158,139.992 532.784,138.553C533.785,136.174 536.101,134.547 539.105,134.547C542.109,134.547 544.363,136.174 545.364,138.553C545.99,139.992 546.178,140.931 546.24,142.871ZM584.845,151.634C584.845,146.001 581.34,143.184 575.394,142.684L570.387,142.246C567.007,141.933 566.005,140.493 566.005,138.615C566.005,136.237 567.946,134.547 571.764,134.547C574.768,134.547 577.584,135.173 579.587,136.863L583.593,132.794C580.651,130.228 576.583,129.227 571.826,129.227C565.192,129.227 559.872,132.732 559.872,138.928C559.872,144.499 563.314,147.19 569.26,147.691L574.33,148.129C577.397,148.379 578.586,149.756 578.586,151.884C578.586,154.889 575.519,156.266 571.638,156.266C568.509,156.266 565.066,155.577 562.5,152.948L558.307,157.142C562.062,160.835 566.443,161.711 571.638,161.711C579.212,161.711 584.845,158.269 584.845,151.634ZM618.105,147.315L618.105,144.499C618.105,135.486 613.16,129.227 604.648,129.227C596.511,129.227 591.191,135.173 591.191,145.438C591.191,157.517 597.513,161.711 605.461,161.711C611.032,161.711 614.099,160.021 617.354,156.766L613.285,152.948C611.032,155.202 609.154,156.203 605.587,156.203C600.392,156.203 597.513,152.761 597.513,147.315L618.105,147.315ZM611.783,142.871L597.513,142.871C597.575,140.931 597.7,139.992 598.326,138.553C599.328,136.174 601.643,134.547 604.648,134.547C607.652,134.547 609.905,136.174 610.907,138.553C611.533,139.992 611.72,140.931 611.783,142.871ZM632.643,123.343L632.643,116.584L625.884,116.584L625.884,123.343L632.643,123.343ZM632.456,161.335L632.456,129.602L626.071,129.602L626.071,161.335L632.456,161.335ZM666.473,161.148L666.473,129.602L660.276,129.602L660.276,132.982C657.898,130.103 655.332,129.227 651.952,129.227C648.76,129.227 646.068,130.228 644.316,131.981C641.249,135.048 640.748,139.492 640.748,144.874C640.748,150.257 641.249,154.701 644.316,157.768C646.068,159.52 648.697,160.584 651.889,160.584C655.144,160.584 657.773,159.708 660.089,156.954L660.089,161.022C660.089,165.279 658.023,169.097 652.64,169.097C649.511,169.097 647.758,168.158 645.755,166.28L641.687,170.348C645.004,173.415 648.071,174.542 652.891,174.542C661.34,174.542 666.473,168.909 666.473,161.148ZM660.089,144.874C660.089,149.882 659.4,154.826 653.642,154.826C647.883,154.826 647.132,149.882 647.132,144.874C647.132,139.867 647.883,134.923 653.642,134.923C659.4,134.923 660.089,139.867 660.089,144.874ZM701.585,147.315L701.585,144.499C701.585,135.486 696.641,129.227 688.128,129.227C679.992,129.227 674.672,135.173 674.672,145.438C674.672,157.517 680.993,161.711 688.942,161.711C694.513,161.711 697.58,160.021 700.834,156.766L696.766,152.948C694.513,155.202 692.635,156.203 689.067,156.203C683.872,156.203 680.993,152.761 680.993,147.315L701.585,147.315ZM695.264,142.871L680.993,142.871C681.056,140.931 681.181,139.992 681.807,138.553C682.808,136.174 685.124,134.547 688.128,134.547C691.133,134.547 693.386,136.174 694.387,138.553C695.013,139.992 695.201,140.931 695.264,142.871ZM735.389,161.335L735.389,141.056C735.389,137.489 734.638,134.484 732.197,132.106C730.319,130.291 727.628,129.227 724.373,129.227C721.181,129.227 718.114,130.416 715.924,132.794L715.924,129.602L709.665,129.602L709.665,161.335L716.049,161.335L716.049,141.995C716.049,137.113 719.053,134.923 722.621,134.923C726.188,134.923 729.005,137.051 729.005,141.995L729.005,161.335L735.389,161.335ZM770.157,147.315L770.157,144.499C770.157,135.486 765.213,129.227 756.701,129.227C748.564,129.227 743.244,135.173 743.244,145.438C743.244,157.517 749.565,161.711 757.514,161.711C763.085,161.711 766.152,160.021 769.406,156.766L765.338,152.948C763.085,155.202 761.207,156.203 757.64,156.203C752.445,156.203 749.565,152.761 749.565,147.315L770.157,147.315ZM763.836,142.871L749.565,142.871C749.628,140.931 749.753,139.992 750.379,138.553C751.38,136.174 753.696,134.547 756.701,134.547C759.705,134.547 761.958,136.174 762.96,138.553C763.586,139.992 763.773,140.931 763.836,142.871ZM803.961,161.335L803.961,141.056C803.961,137.489 803.21,134.484 800.769,132.106C798.892,130.291 796.2,129.227 792.946,129.227C789.753,129.227 786.687,130.416 784.496,132.794L784.496,129.602L778.237,129.602L778.237,161.335L784.621,161.335L784.621,141.995C784.621,137.113 787.625,134.923 791.193,134.923C794.761,134.923 797.577,137.051 797.577,141.995L797.577,161.335L803.961,161.335Z" style="fill:white;fill-rule:nonzero;"/>
    </g>
</svg>
